<?xml version="1.0" standalone="no"?>
<!DOCTYPE svg PUBLIC "-//W3C//DTD SVG 20010904//EN"
 "http://www.w3.org/TR/2001/REC-SVG-20010904/DTD/svg10.dtd">
<svg version="1.0" xmlns="http://www.w3.org/2000/svg"
 width="275.000000pt" height="275.000000pt" viewBox="0 0 275.000000 275.000000"
 preserveAspectRatio="xMidYMid meet">
<metadata>
Created by potrace 1.11, written by Peter Selinger 2001-2013
</metadata>
<g transform="translate(0.000000,275.000000) scale(0.100000,-0.100000)"
fill="#000000" stroke="none">
<path d="M149 2713 c36 -44 162 -201 206 -257 87 -110 210 -264 229 -286 11
-14 37 -45 56 -70 19 -25 42 -54 51 -65 10 -11 64 -79 123 -152 l105 -131 -22
-29 c-12 -15 -25 -32 -29 -38 -4 -5 -20 -26 -36 -45 -16 -19 -120 -150 -232
-290 -112 -140 -266 -333 -342 -428 l-139 -172 300 0 300 0 149 185 c82 101
159 198 172 214 12 17 126 159 251 315 l229 285 -103 128 c-56 71 -114 145
-129 165 -15 20 -33 42 -40 50 -7 7 -83 101 -168 208 -85 107 -157 197 -160
200 -3 3 -28 34 -55 69 -28 34 -72 90 -98 122 l-49 59 -299 0 -300 0 30 -37z"/>
<path d="M1638 1523 c-211 -263 -391 -488 -401 -500 -17 -22 -15 -25 280 -395
164 -205 300 -375 303 -378 3 -3 49 -60 103 -127 l98 -123 299 0 300 0 -400
500 -400 500 322 402 c177 222 357 447 400 501 l78 97 -300 0 -300 0 -382
-477z"/>
</g>
</svg>
